<?xml version="1.0" standalone="no"?><!DOCTYPE svg PUBLIC "-//W3C//DTD SVG 1.1//EN" "http://www.w3.org/Graphics/SVG/1.1/DTD/svg11.dtd"><svg t="1665970933282" class="icon" viewBox="0 0 1024 1024" version="1.1" xmlns="http://www.w3.org/2000/svg" p-id="2583" xmlns:xlink="http://www.w3.org/1999/xlink" width="128" height="128"><path d="M520.99 80.38h-18.12c-10 0-18.1 8.13-18.1 18.12v127.71c0 10.01 8.1 18.12 18.1 18.12h18.12c10.02 0 18.12-8.1 18.12-18.12V98.5c0-9.99-8.1-18.12-18.12-18.12z" fill="#E6E9ED" p-id="2584"></path><path d="M656.88 407.39c10.02 0 18.12-8.1 18.12-18.12 0-10.97 32.21-18.07 54.35-18.12 10.02 0 18.12-8.1 18.12-18.12 0-10.02-8.1-18.12-18.12-18.12-0.82 0-20.57 0.05-40.64 5.07-18.65 4.65-49.96 17.27-49.96 49.28 0.01 10.03 8.13 18.13 18.13 18.13zM729.36 516.1c-0.82 0-20.57 0.05-40.64 5.07-18.65 4.65-49.96 17.27-49.96 49.28 0 9.99 8.12 18.12 18.12 18.12 10.02 0 18.12-8.13 18.12-18.12 0-10.97 32.21-18.07 54.35-18.12 10.02 0 18.12-8.1 18.12-18.12 0.01-10-8.1-18.11-18.11-18.11zM729.36 697.29c-0.82 0-20.57 0.05-40.64 5.07-18.65 4.65-49.96 17.27-49.96 49.28 0 9.99 8.12 18.12 18.12 18.12 10.02 0 18.12-8.13 18.12-18.12 0-10.97 32.21-18.06 54.35-18.12 10.02 0 18.12-8.13 18.12-18.12 0.01-10.01-8.1-18.11-18.11-18.11zM335.16 340.68c-20.06-4.99-39.8-5.05-40.64-5.05-10 0-18.09 8.08-18.1 18.09-0.01 9.99 8.08 18.12 18.08 18.15 22.17 0.05 54.38 7.15 54.38 18.12 0 9.99 8.12 18.12 18.12 18.12 10 0 18.12-8.13 18.12-18.12 0-32.01-31.31-44.63-49.96-49.31zM335.16 521.87c-20.06-4.99-39.8-5.05-40.64-5.05-10 0-18.09 8.08-18.1 18.09-0.01 9.99 8.08 18.09 18.08 18.15 22.17 0.05 54.38 7.15 54.38 18.12 0 9.99 8.12 18.09 18.12 18.09 10 0 18.12-8.1 18.12-18.09 0-32.04-31.31-44.63-49.96-49.31zM335.16 703.06c-20.06-4.99-39.8-5.07-40.64-5.07-10 0-18.09 8.1-18.1 18.09-0.01 10.02 8.08 18.12 18.08 18.15 22.17 0.08 54.38 7.15 54.38 18.12 0 10.02 8.12 18.12 18.12 18.12 10 0 18.12-8.1 18.12-18.12 0-32.03-31.31-44.62-49.96-49.29zM599.95 208.09H418.76c-10 0-18.12 8.1-18.12 18.12v54.35c0 10.02 8.12 18.12 18.12 18.12h181.19c10 0 18.12-8.1 18.12-18.12v-54.35c0-10.02-8.12-18.12-18.12-18.12z" fill="#434A54" p-id="2585"></path><path d="M656.88 262.44H367c-10 0-18.12 8.1-18.12 18.12v652.27c0 9.99 8.12 18.12 18.12 18.12h289.88c10.02 0 18.12-8.13 18.12-18.12V280.56c0-10.01-8.1-18.12-18.12-18.12z" fill="#656D78" p-id="2586"></path><path d="M510.63 334.92c-49.96 0-90.59 40.65-90.59 90.59 0 49.95 40.63 90.59 90.59 90.59 49.94 0 90.59-40.65 90.59-90.59 0-49.94-40.64-90.59-90.59-90.59z" fill="#ED5564" p-id="2587"></path><path d="M510.63 516.1c-49.96 0-90.59 40.65-90.59 90.59s40.63 90.59 90.59 90.59c49.94 0 90.59-40.65 90.59-90.59s-40.64-90.59-90.59-90.59z" fill="#FFCE54" p-id="2588"></path><path d="M510.63 697.29c-49.96 0-90.59 40.62-90.59 90.59 0 49.95 40.63 90.59 90.59 90.59 49.94 0 90.59-40.65 90.59-90.59 0-49.97-40.64-90.59-90.59-90.59z" fill="#A0D468" p-id="2589"></path><path d="M524.75 764.8c-7.08 7.09-18.54 7.09-25.62 0-7.08-7.07-7.08-18.54 0-25.61 7.08-7.09 18.54-7.09 25.62 0 7.08 7.07 7.08 18.54 0 25.61zM523.44 836.58c-7.07 7.07-18.55 7.07-25.61 0-7.08-7.09-7.08-18.57 0-25.64 7.06-7.07 18.54-7.07 25.61 0 7.08 7.07 7.08 18.55 0 25.64zM560.99 800.35c-7.08 7.07-18.54 7.07-25.62 0-7.08-7.09-7.08-18.57 0-25.64s18.55-7.07 25.62 0c7.08 7.06 7.08 18.54 0 25.64zM488.51 800.35c-7.08 7.07-18.55 7.07-25.62 0-7.07-7.09-7.07-18.57 0-25.64 7.08-7.07 18.54-7.07 25.62 0 7.08 7.06 7.08 18.54 0 25.64z" fill="#8CC153" p-id="2590"></path><path d="M524.75 583.61c-7.08 7.09-18.54 7.09-25.62 0-7.08-7.07-7.08-18.55 0-25.61 7.08-7.07 18.54-7.07 25.62 0 7.08 7.07 7.08 18.55 0 25.61z" fill="#F6BB42" p-id="2591"></path><path d="M492.52 642.58a18.11 18.13 0 1 0 36.22 0 18.11 18.13 0 1 0-36.22 0Z" fill="#F6BB42" p-id="2592"></path><path d="M530.06 606.34a18.12 18.13 0 1 0 36.24 0 18.12 18.13 0 1 0-36.24 0Z" fill="#F6BB42" p-id="2593"></path><path d="M488.51 619.16c-7.08 7.07-18.55 7.07-25.62 0-7.07-7.09-7.07-18.54 0-25.64 7.08-7.07 18.54-7.07 25.62 0 7.08 7.1 7.08 18.55 0 25.64z" fill="#F6BB42" p-id="2594"></path><path d="M524.75 402.43c-7.08 7.09-18.54 7.09-25.62 0-7.08-7.07-7.08-18.54 0-25.61s18.54-7.07 25.62 0c7.08 7.06 7.08 18.54 0 25.61zM523.44 474.21c-7.07 7.07-18.55 7.07-25.61 0-7.08-7.07-7.08-18.55 0-25.64 7.06-7.07 18.54-7.07 25.61 0 7.08 7.09 7.08 18.57 0 25.64zM560.99 437.97c-7.08 7.07-18.54 7.07-25.62 0-7.08-7.07-7.08-18.54 0-25.63 7.08-7.07 18.55-7.07 25.62 0 7.08 7.09 7.08 18.57 0 25.63zM488.51 437.97c-7.08 7.07-18.55 7.07-25.62 0s-7.07-18.54 0-25.63c7.08-7.07 18.54-7.07 25.62 0 7.08 7.09 7.08 18.57 0 25.63z" fill="#DA4453" p-id="2595"></path></svg>